<svg width="415" height="64" viewBox="0 0 415 64" fill="none" xmlns="http://www.w3.org/2000/svg">
<g style="mix-blend-mode:darken" filter="url(#filter0_b_14_13)">
<rect width="204" height="53" rx="20" fill="url(#paint0_linear_14_13)"/>
</g>
<path d="M51.6875 37V16.375H54.4766L57.6641 32.8633L60.6992 16.375H63.5V37H61.4258V29.1953L61.625 21.4844L58.5195 37H56.7852L53.5508 21.4844L53.75 29.1953V37H51.6875ZM66.875 37V16.375H73.0391V18.3906H69.3008V25.4453H72.8398V27.4609H69.3008V34.9844H73.0859V37H66.875ZM80.4219 37L83.5508 16.375H86.4688L89.8789 37H87.5938L87.0078 33.0625H83.2695L82.7305 37H80.4219ZM83.5391 31.0938H86.7031L85.0742 20.1953H85.0391L83.5391 31.0938ZM92.1641 37V16.375H96.043C97.1211 16.375 97.9609 16.6016 98.5625 17.0547C99.1641 17.5 99.5859 18.1406 99.8281 18.9766C100.07 19.8125 100.191 20.8125 100.191 21.9766L100.203 31.0352C100.203 32.4258 100.062 33.5625 99.7812 34.4453C99.5078 35.3203 99.0586 35.9648 98.4336 36.3789C97.8164 36.793 96.9922 37 95.9609 37H92.1641ZM94.5781 35.043H95.8203C96.2578 35.043 96.6211 34.9492 96.9102 34.7617C97.1992 34.5664 97.4141 34.207 97.5547 33.6836C97.7031 33.1602 97.7773 32.4023 97.7773 31.4102V21.918C97.7773 20.6211 97.625 19.6953 97.3203 19.1406C97.0156 18.5781 96.5156 18.2969 95.8203 18.2969H94.5781V35.043ZM103.344 37V16.375H105.77V37H103.344ZM112.977 37.2461C111.977 37.2461 111.18 37.0039 110.586 36.5195C109.992 36.0273 109.566 35.3086 109.309 34.3633C109.051 33.418 108.922 32.2695 108.922 30.918V22.3281C108.922 21.4219 108.98 20.5938 109.098 19.8438C109.215 19.0859 109.422 18.4336 109.719 17.8867C110.023 17.332 110.445 16.9062 110.984 16.6094C111.523 16.3047 112.215 16.1523 113.059 16.1523C113.863 16.1523 114.52 16.2969 115.027 16.5859C115.535 16.8672 115.93 17.2734 116.211 17.8047C116.492 18.3281 116.684 18.9531 116.785 19.6797C116.895 20.3984 116.949 21.1953 116.949 22.0703V24.3555H114.57V22.0586C114.57 20.7773 114.477 19.8203 114.289 19.1875C114.109 18.5469 113.699 18.2266 113.059 18.2266C112.379 18.2266 111.922 18.5547 111.688 19.2109C111.461 19.8594 111.348 20.8047 111.348 22.0469V30.9766C111.348 31.9766 111.391 32.7891 111.477 33.4141C111.562 34.0312 111.723 34.4805 111.957 34.7617C112.199 35.043 112.543 35.1836 112.988 35.1836C113.637 35.1836 114.062 34.8555 114.266 34.1992C114.469 33.543 114.57 32.4648 114.57 30.9648V28.6797H116.973V30.9414C116.973 32.3164 116.852 33.4727 116.609 34.4102C116.375 35.3477 115.969 36.0547 115.391 36.5312C114.812 37.0078 114.008 37.2461 112.977 37.2461ZM119.914 37V16.375H122.34V37H119.914ZM129.594 37.2344C128.562 37.2344 127.746 37.0078 127.145 36.5547C126.551 36.1016 126.125 35.418 125.867 34.5039C125.617 33.5898 125.492 32.4453 125.492 31.0703V21.9766C125.492 20.7891 125.609 19.7578 125.844 18.8828C126.078 18.0078 126.496 17.3281 127.098 16.8438C127.699 16.3594 128.551 16.1172 129.652 16.1172C130.48 16.1172 131.156 16.2578 131.68 16.5391C132.203 16.8125 132.605 17.207 132.887 17.7227C133.176 18.2305 133.375 18.8438 133.484 19.5625C133.594 20.2812 133.648 21.0859 133.648 21.9766V31.0703C133.648 32.4453 133.523 33.5898 133.273 34.5039C133.031 35.418 132.613 36.1016 132.02 36.5547C131.434 37.0078 130.625 37.2344 129.594 37.2344ZM129.594 35.1484C130.039 35.1484 130.379 35.0234 130.613 34.7734C130.848 34.5156 131.008 34.0898 131.094 33.4961C131.18 32.9023 131.223 32.1016 131.223 31.0938V21.8359C131.223 20.6016 131.125 19.6875 130.93 19.0938C130.734 18.5 130.309 18.2031 129.652 18.2031C128.973 18.2031 128.512 18.5 128.27 19.0938C128.035 19.6797 127.918 20.5898 127.918 21.8242V31.0938C127.918 32.1094 127.961 32.9141 128.047 33.5078C128.133 34.0938 128.297 34.5156 128.539 34.7734C128.781 35.0234 129.133 35.1484 129.594 35.1484ZM136.789 37V16.375H138.617L143.398 30.4141L143.152 24.4492V16.375H145.297V37H143.516L138.887 22.8438L139.027 28.0469V37H136.789ZM148.672 37V16.375H154.836V18.3906H151.098V25.4453H154.637V27.4609H151.098V34.9844H154.883V37H148.672Z" fill="white"/>
<defs>
<filter id="filter0_b_14_13" x="-6" y="-6" width="216" height="65" filterUnits="userSpaceOnUse" color-interpolation-filters="sRGB">
<feFlood flood-opacity="0" result="BackgroundImageFix"/>
<feGaussianBlur in="BackgroundImage" stdDeviation="3"/>
<feComposite in2="SourceAlpha" operator="in" result="effect1_backgroundBlur_14_13"/>
<feBlend mode="normal" in="SourceGraphic" in2="effect1_backgroundBlur_14_13" result="shape"/>
</filter>
<linearGradient id="paint0_linear_14_13" x1="102" y1="0" x2="102" y2="53" gradientUnits="userSpaceOnUse">
<stop stop-color="#140F27"/>
<stop offset="1" stop-color="#1B0B3C" stop-opacity="0.92"/>
<stop offset="1" stop-color="#1A112C" stop-opacity="0"/>
</linearGradient>
</defs>
</svg>
